<?xml version="1.0" encoding="UTF-8"?><!DOCTYPE score-partwise PUBLIC "-//Recordare//DTD MusicXML 3.1 Partwise//EN" "http://www.musicxml.org/dtds/partwise.dtd"><score-partwise version="3.1"><work><work-title>D Major Scale</work-title></work><identification><rights>MIT License</rights><encoding><software>MuseScore 3.3.2</software><encoding-date>2019-11-25</encoding-date><supports element="accidental" type="yes"/><supports element="beam" type="yes"/><supports element="print" attribute="new-page" type="yes" value="yes"/><supports element="print" attribute="new-system" type="yes" value="yes"/><supports element="stem" type="yes"/></encoding></identification><defaults><scaling><millimeters>7.05556</millimeters><tenths>40</tenths></scaling><page-layout><page-height>1584</page-height><page-width>1224</page-width><page-margins type="even"><left-margin>56.6929</left-margin><right-margin>56.6929</right-margin><top-margin>56.6929</top-margin><bottom-margin>113.386</bottom-margin></page-margins><page-margins type="odd"><left-margin>56.6929</left-margin><right-margin>56.6929</right-margin><top-margin>56.6929</top-margin><bottom-margin>113.386</bottom-margin></page-margins></page-layout><word-font font-family="FreeSerif" font-size="10"/><lyric-font font-family="FreeSerif" font-size="11"/></defaults><credit page="1"><credit-words default-x="612" default-y="1527.31" justify="center" valign="top" font-size="24">D Major Scale</credit-words></credit><credit page="1"><credit-words default-x="612" default-y="113.386" justify="center" valign="bottom" font-size="8">MIT License</credit-words></credit><part-list><score-part id="P1"><part-name>Piano</part-name><part-abbreviation>Pno.</part-abbreviation><score-instrument id="P1-I1"><instrument-name>Piano</instrument-name></score-instrument><midi-device id="P1-I1" port="1"></midi-device><midi-instrument id="P1-I1"><midi-channel>1</midi-channel><midi-program>1</midi-program><volume>78.7402</volume><pan>0</pan></midi-instrument></score-part></part-list><part id="P1"><measure number="1" width="201.26"><print><system-layout><system-margins><left-margin>0.00</left-margin><right-margin>-0.00</right-margin></system-margins><top-system-distance>170.00</top-system-distance></system-layout></print><attributes><divisions>1</divisions><key><fifths>0</fifths></key><time><beats>4</beats><beat-type>4</beat-type></time><clef><sign>G</sign><line>2</line></clef></attributes><note default-x="79.27" default-y="-10.00"><pitch><step>D</step><octave>5</octave></pitch><duration>1</duration><voice>1</voice><type>quarter</type><stem>down</stem><lyric number="1" default-x="6.58" default-y="-40.00" relative-y="-30.00"><syllabic>single</syllabic><text>D</text></lyric></note><note default-x="109.04" default-y="-5.00"><pitch><step>E</step><octave>5</octave></pitch><duration>1</duration><voice>1</voice><type>quarter</type><stem>down</stem><lyric number="1" default-x="6.58" default-y="-40.00" relative-y="-30.00"><syllabic>single</syllabic><text>E</text></lyric></note><note default-x="140.12" default-y="0.00"><pitch><step>F</step><alter>1</alter><octave>5</octave></pitch><duration>1</duration><voice>1</voice><type>quarter</type><accidental>sharp</accidental><stem>down</stem><lyric number="1" default-x="12.18" default-y="-40.00" relative-y="-30.00"><syllabic>single</syllabic><text>F#</text></lyric></note><note default-x="169.89" default-y="5.00"><pitch><step>G</step><octave>5</octave></pitch><duration>1</duration><voice>1</voice><type>quarter</type><stem>down</stem><lyric number="1" default-x="6.58" default-y="-40.00" relative-y="-30.00"><syllabic>single</syllabic><text>G</text></lyric></note></measure><measure number="2" width="141.21"><note default-x="13.80" default-y="10.00"><pitch><step>A</step><octave>5</octave></pitch><duration>1</duration><voice>1</voice><type>quarter</type><stem>down</stem><lyric number="1" default-x="6.58" default-y="-40.00" relative-y="-30.00"><syllabic>single</syllabic><text>A</text></lyric></note><note default-x="44.17" default-y="15.00"><pitch><step>B</step><octave>5</octave></pitch><duration>1</duration><voice>1</voice><type>quarter</type><stem>down</stem><lyric number="1" default-x="6.58" default-y="-40.00" relative-y="-30.00"><syllabic>single</syllabic><text>B</text></lyric></note><note default-x="78.86" default-y="20.00"><pitch><step>C</step><alter>1</alter><octave>6</octave></pitch><duration>1</duration><voice>1</voice><type>quarter</type><accidental>sharp</accidental><stem>down</stem><lyric number="1" default-x="8.38" default-y="-40.00" relative-x="-4.00" relative-y="-30.00"><syllabic>single</syllabic><text>C#</text></lyric></note><note default-x="109.23" default-y="25.00"><pitch><step>D</step><octave>6</octave></pitch><duration>1</duration><voice>1</voice><type>quarter</type><stem>down</stem><lyric number="1" default-x="5.58" default-y="-40.00" relative-x="-1.00" relative-y="-30.00"><syllabic>single</syllabic><text>D</text></lyric></note></measure><measure number="3" width="141.21"><note default-x="13.80" default-y="25.00"><pitch><step>D</step><octave>6</octave></pitch><duration>1</duration><voice>1</voice><type>quarter</type><stem>down</stem></note><note default-x="48.48" default-y="20.00"><pitch><step>C</step><alter>1</alter><octave>6</octave></pitch><duration>1</duration><voice>1</voice><type>quarter</type><accidental>sharp</accidental><stem>down</stem></note><note default-x="78.86" default-y="15.00"><pitch><step>B</step><octave>5</octave></pitch><duration>1</duration><voice>1</voice><type>quarter</type><stem>down</stem></note><note default-x="109.23" default-y="10.00"><pitch><step>A</step><octave>5</octave></pitch><duration>1</duration><voice>1</voice><type>quarter</type><stem>down</stem></note></measure><measure number="4" width="114.85"><note default-x="10.00" default-y="5.00"><pitch><step>G</step><octave>5</octave></pitch><duration>1</duration><voice>1</voice><type>quarter</type><stem>down</stem></note><note default-x="41.08" default-y="0.00"><pitch><step>F</step><alter>1</alter><octave>5</octave></pitch><duration>1</duration><voice>1</voice><type>quarter</type><accidental>sharp</accidental><stem>down</stem></note><note default-x="65.14" default-y="-5.00"><pitch><step>E</step><octave>5</octave></pitch><duration>1</duration><voice>1</voice><type>quarter</type><stem>down</stem></note><note default-x="89.19" default-y="-10.00"><pitch><step>D</step><octave>5</octave></pitch><duration>1</duration><voice>1</voice><type>quarter</type><stem>down</stem></note></measure><measure number="5" width="114.85"><note default-x="10.00" default-y="-10.00"><pitch><step>D</step><octave>5</octave></pitch><duration>1</duration><voice>1</voice><type>quarter</type><stem>down</stem></note><note default-x="34.05" default-y="-5.00"><pitch><step>E</step><octave>5</octave></pitch><duration>1</duration><voice>1</voice><type>quarter</type><stem>down</stem></note><note default-x="65.14" default-y="0.00"><pitch><step>F</step><alter>1</alter><octave>5</octave></pitch><duration>1</duration><voice>1</voice><type>quarter</type><accidental>sharp</accidental><stem>down</stem></note><note default-x="89.19" default-y="5.00"><pitch><step>G</step><octave>5</octave></pitch><duration>1</duration><voice>1</voice><type>quarter</type><stem>down</stem></note></measure><measure number="6" width="141.21"><note default-x="13.80" default-y="10.00"><pitch><step>A</step><octave>5</octave></pitch><duration>1</duration><voice>1</voice><type>quarter</type><stem>down</stem></note><note default-x="44.17" default-y="15.00"><pitch><step>B</step><octave>5</octave></pitch><duration>1</duration><voice>1</voice><type>quarter</type><stem>down</stem></note><note default-x="78.86" default-y="20.00"><pitch><step>C</step><alter>1</alter><octave>6</octave></pitch><duration>1</duration><voice>1</voice><type>quarter</type><accidental>sharp</accidental><stem>down</stem></note><note default-x="109.23" default-y="25.00"><pitch><step>D</step><octave>6</octave></pitch><duration>1</duration><voice>1</voice><type>quarter</type><stem>down</stem></note></measure><measure number="7" width="141.21"><note default-x="13.80" default-y="25.00"><pitch><step>D</step><octave>6</octave></pitch><duration>1</duration><voice>1</voice><type>quarter</type><stem>down</stem></note><note default-x="48.48" default-y="20.00"><pitch><step>C</step><alter>1</alter><octave>6</octave></pitch><duration>1</duration><voice>1</voice><type>quarter</type><accidental>sharp</accidental><stem>down</stem></note><note default-x="78.86" default-y="15.00"><pitch><step>B</step><octave>5</octave></pitch><duration>1</duration><voice>1</voice><type>quarter</type><stem>down</stem></note><note default-x="109.23" default-y="10.00"><pitch><step>A</step><octave>5</octave></pitch><duration>1</duration><voice>1</voice><type>quarter</type><stem>down</stem></note></measure><measure number="8" width="114.85"><note default-x="10.00" default-y="5.00"><pitch><step>G</step><octave>5</octave></pitch><duration>1</duration><voice>1</voice><type>quarter</type><stem>down</stem></note><note default-x="41.08" default-y="0.00"><pitch><step>F</step><alter>1</alter><octave>5</octave></pitch><duration>1</duration><voice>1</voice><type>quarter</type><accidental>sharp</accidental><stem>down</stem></note><note default-x="65.14" default-y="-5.00"><pitch><step>E</step><octave>5</octave></pitch><duration>1</duration><voice>1</voice><type>quarter</type><stem>down</stem></note><note default-x="89.19" default-y="-10.00"><pitch><step>D</step><octave>5</octave></pitch><duration>1</duration><voice>1</voice><type>quarter</type><stem>down</stem></note></measure><measure number="9" width="190.64"><print new-system="yes"><system-layout><system-margins><left-margin>0.00</left-margin><right-margin>-0.00</right-margin></system-margins><system-distance>150.00</system-distance></system-layout></print><note default-x="58.17" default-y="-45.00"><pitch><step>D</step><octave>4</octave></pitch><duration>1</duration><voice>1</voice><type>quarter</type><stem>up</stem><lyric number="1" default-x="6.58" default-y="-46.30" relative-y="-30.00"><syllabic>single</syllabic><text>D</text></lyric></note><note default-x="90.89" default-y="-40.00"><pitch><step>E</step><octave>4</octave></pitch><duration>1</duration><voice>1</voice><type>quarter</type><stem>up</stem><lyric number="1" default-x="6.58" default-y="-46.30" relative-y="-30.00"><syllabic>single</syllabic><text>E</text></lyric></note><note default-x="123.61" default-y="-35.00"><pitch><step>F</step><alter>1</alter><octave>4</octave></pitch><duration>1</duration><voice>1</voice><type>quarter</type><accidental>sharp</accidental><stem>up</stem><lyric number="1" default-x="12.18" default-y="-46.30" relative-y="-30.00"><syllabic>single</syllabic><text>F#</text></lyric></note><note default-x="156.32" default-y="-30.00"><pitch><step>G</step><octave>4</octave></pitch><duration>1</duration><voice>1</voice><type>quarter</type><stem>up</stem><lyric number="1" default-x="6.58" default-y="-46.30" relative-y="-30.00"><syllabic>single</syllabic><text>G</text></lyric></note></measure><measure number="10" width="136.46"><note default-x="11.22" default-y="-25.00"><pitch><step>A</step><octave>4</octave></pitch><duration>1</duration><voice>1</voice><type>quarter</type><stem>up</stem><lyric number="1" default-x="6.58" default-y="-46.30" relative-y="-30.00"><syllabic>single</syllabic><text>A</text></lyric></note><note default-x="42.07" default-y="-20.00"><pitch><step>B</step><octave>4</octave></pitch><duration>1</duration><voice>1</voice><type>quarter</type><stem>down</stem><lyric number="1" default-x="6.58" default-y="-46.30" relative-y="-30.00"><syllabic>single</syllabic><text>B</text></lyric></note><note default-x="73.15" default-y="-15.00"><pitch><step>C</step><alter>1</alter><octave>5</octave></pitch><duration>1</duration><voice>1</voice><type>quarter</type><accidental>sharp</accidental><stem>down</stem><lyric number="1" default-x="8.38" default-y="-46.30" relative-x="-4.00" relative-y="-30.00"><syllabic>single</syllabic><text>C#</text></lyric></note><note default-x="104.00" default-y="-10.00"><pitch><step>D</step><octave>5</octave></pitch><duration>1</duration><voice>1</voice><type>quarter</type><stem>down</stem><lyric number="1" default-x="5.58" default-y="-46.30" relative-x="-1.00" relative-y="-30.00"><syllabic>single</syllabic><text>D</text></lyric></note></measure><measure number="11" width="125.32"><note default-x="10.00" default-y="-10.00"><pitch><step>D</step><octave>5</octave></pitch><duration>1</duration><voice>1</voice><type>quarter</type><stem>down</stem></note><note default-x="41.08" default-y="-15.00"><pitch><step>C</step><alter>1</alter><octave>5</octave></pitch><duration>1</duration><voice>1</voice><type>quarter</type><accidental>sharp</accidental><stem>down</stem></note><note default-x="68.63" default-y="-20.00"><pitch><step>B</step><octave>4</octave></pitch><duration>1</duration><voice>1</voice><type>quarter</type><stem>down</stem></note><note default-x="96.17" default-y="-25.00"><pitch><step>A</step><octave>4</octave></pitch><duration>1</duration><voice>1</voice><type>quarter</type><stem>up</stem></note></measure><measure number="12" width="125.32"><note default-x="10.00" default-y="-30.00"><pitch><step>G</step><octave>4</octave></pitch><duration>1</duration><voice>1</voice><type>quarter</type><stem>up</stem></note><note default-x="41.08" default-y="-35.00"><pitch><step>F</step><alter>1</alter><octave>4</octave></pitch><duration>1</duration><voice>1</voice><type>quarter</type><accidental>sharp</accidental><stem>up</stem></note><note default-x="68.63" default-y="-40.00"><pitch><step>E</step><octave>4</octave></pitch><duration>1</duration><voice>1</voice><type>quarter</type><stem>up</stem></note><note default-x="96.17" default-y="-45.00"><pitch><step>D</step><octave>4</octave></pitch><duration>1</duration><voice>1</voice><type>quarter</type><stem>up</stem></note></measure><measure number="13" width="125.32"><note default-x="10.00" default-y="-45.00"><pitch><step>D</step><octave>4</octave></pitch><duration>1</duration><voice>1</voice><type>quarter</type><stem>up</stem></note><note default-x="37.55" default-y="-40.00"><pitch><step>E</step><octave>4</octave></pitch><duration>1</duration><voice>1</voice><type>quarter</type><stem>up</stem></note><note default-x="68.63" default-y="-35.00"><pitch><step>F</step><alter>1</alter><octave>4</octave></pitch><duration>1</duration><voice>1</voice><type>quarter</type><accidental>sharp</accidental><stem>up</stem></note><note default-x="96.17" default-y="-30.00"><pitch><step>G</step><octave>4</octave></pitch><duration>1</duration><voice>1</voice><type>quarter</type><stem>up</stem></note></measure><measure number="14" width="125.32"><note default-x="10.00" default-y="-25.00"><pitch><step>A</step><octave>4</octave></pitch><duration>1</duration><voice>1</voice><type>quarter</type><stem>up</stem></note><note default-x="37.55" default-y="-20.00"><pitch><step>B</step><octave>4</octave></pitch><duration>1</duration><voice>1</voice><type>quarter</type><stem>down</stem></note><note default-x="68.63" default-y="-15.00"><pitch><step>C</step><alter>1</alter><octave>5</octave></pitch><duration>1</duration><voice>1</voice><type>quarter</type><accidental>sharp</accidental><stem>down</stem></note><note default-x="96.17" default-y="-10.00"><pitch><step>D</step><octave>5</octave></pitch><duration>1</duration><voice>1</voice><type>quarter</type><stem>down</stem></note></measure><measure number="15" width="125.32"><note default-x="10.00" default-y="-10.00"><pitch><step>D</step><octave>5</octave></pitch><duration>1</duration><voice>1</voice><type>quarter</type><stem>down</stem></note><note default-x="41.08" default-y="-15.00"><pitch><step>C</step><alter>1</alter><octave>5</octave></pitch><duration>1</duration><voice>1</voice><type>quarter</type><accidental>sharp</accidental><stem>down</stem></note><note default-x="68.63" default-y="-20.00"><pitch><step>B</step><octave>4</octave></pitch><duration>1</duration><voice>1</voice><type>quarter</type><stem>down</stem></note><note default-x="96.17" default-y="-25.00"><pitch><step>A</step><octave>4</octave></pitch><duration>1</duration><voice>1</voice><type>quarter</type><stem>up</stem></note></measure><measure number="16" width="156.93"><note default-x="10.00" default-y="-30.00"><pitch><step>G</step><octave>4</octave></pitch><duration>1</duration><voice>1</voice><type>quarter</type><stem>up</stem></note><note default-x="41.08" default-y="-35.00"><pitch><step>F</step><alter>1</alter><octave>4</octave></pitch><duration>1</duration><voice>1</voice><type>quarter</type><accidental>sharp</accidental><stem>up</stem></note><note default-x="68.63" default-y="-40.00"><pitch><step>E</step><octave>4</octave></pitch><duration>1</duration><voice>1</voice><type>quarter</type><stem>up</stem></note><note default-x="96.17" default-y="-45.00"><pitch><step>D</step><octave>4</octave></pitch><duration>1</duration><voice>1</voice><type>quarter</type><stem>up</stem></note><barline location="right"><bar-style>light-light</bar-style></barline></measure><measure number="17" width="207.41"><print new-system="yes"><system-layout><system-margins><left-margin>0.00</left-margin><right-margin>-0.00</right-margin></system-margins><system-distance>150.00</system-distance></system-layout></print><attributes><key><fifths>2</fifths></key></attributes><note default-x="89.19" default-y="-10.00"><pitch><step>D</step><octave>5</octave></pitch><duration>1</duration><voice>1</voice><type>quarter</type><stem>down</stem><lyric number="1" default-x="6.58" default-y="-40.00" relative-y="-30.00"><syllabic>single</syllabic><text>D</text></lyric></note><note default-x="118.35" default-y="-5.00"><pitch><step>E</step><octave>5</octave></pitch><duration>1</duration><voice>1</voice><type>quarter</type><stem>down</stem><lyric number="1" default-x="6.58" default-y="-40.00" relative-y="-30.00"><syllabic>single</syllabic><text>E</text></lyric></note><note default-x="147.50" default-y="0.00"><pitch><step>F</step><alter>1</alter><octave>5</octave></pitch><duration>1</duration><voice>1</voice><type>quarter</type><stem>down</stem><lyric number="1" default-x="12.18" default-y="-40.00" relative-y="-30.00"><syllabic>single</syllabic><text>F#</text></lyric></note><note default-x="176.66" default-y="5.00"><pitch><step>G</step><octave>5</octave></pitch><duration>1</duration><voice>1</voice><type>quarter</type><stem>down</stem><lyric number="1" default-x="6.58" default-y="-40.00" relative-y="-30.00"><syllabic>single</syllabic><text>G</text></lyric></note></measure><measure number="18" width="143.24"><note default-x="13.80" default-y="10.00"><pitch><step>A</step><octave>5</octave></pitch><duration>1</duration><voice>1</voice><type>quarter</type><stem>down</stem><lyric number="1" default-x="6.58" default-y="-40.00" relative-y="-30.00"><syllabic>single</syllabic><text>A</text></lyric></note><note default-x="45.76" default-y="15.00"><pitch><step>B</step><octave>5</octave></pitch><duration>1</duration><voice>1</voice><type>quarter</type><stem>down</stem><lyric number="1" default-x="6.58" default-y="-40.00" relative-y="-30.00"><syllabic>single</syllabic><text>B</text></lyric></note><note default-x="77.72" default-y="20.00"><pitch><step>C</step><alter>1</alter><octave>6</octave></pitch><duration>1</duration><voice>1</voice><type>quarter</type><stem>down</stem><lyric number="1" default-x="8.38" default-y="-40.00" relative-x="-4.00" relative-y="-30.00"><syllabic>single</syllabic><text>C#</text></lyric></note><note default-x="109.68" default-y="25.00"><pitch><step>D</step><octave>6</octave></pitch><duration>1</duration><voice>1</voice><type>quarter</type><stem>down</stem><lyric number="1" default-x="5.58" default-y="-40.00" relative-x="-1.00" relative-y="-30.00"><syllabic>single</syllabic><text>D</text></lyric></note></measure><measure number="19" width="142.24"><note default-x="13.80" default-y="25.00"><pitch><step>D</step><octave>6</octave></pitch><duration>1</duration><voice>1</voice><type>quarter</type><stem>down</stem></note><note default-x="45.51" default-y="20.00"><pitch><step>C</step><alter>1</alter><octave>6</octave></pitch><duration>1</duration><voice>1</voice><type>quarter</type><stem>down</stem></note><note default-x="77.22" default-y="15.00"><pitch><step>B</step><octave>5</octave></pitch><duration>1</duration><voice>1</voice><type>quarter</type><stem>down</stem></note><note default-x="108.93" default-y="10.00"><pitch><step>A</step><octave>5</octave></pitch><duration>1</duration><voice>1</voice><type>quarter</type><stem>down</stem></note></measure><measure number="20" width="111.08"><note default-x="10.00" default-y="5.00"><pitch><step>G</step><octave>5</octave></pitch><duration>1</duration><voice>1</voice><type>quarter</type><stem>down</stem></note><note default-x="34.87" default-y="0.00"><pitch><step>F</step><alter>1</alter><octave>5</octave></pitch><duration>1</duration><voice>1</voice><type>quarter</type><stem>down</stem></note><note default-x="59.74" default-y="-5.00"><pitch><step>E</step><octave>5</octave></pitch><duration>1</duration><voice>1</voice><type>quarter</type><stem>down</stem></note><note default-x="84.61" default-y="-10.00"><pitch><step>D</step><octave>5</octave></pitch><duration>1</duration><voice>1</voice><type>quarter</type><stem>down</stem></note></measure><measure number="21" width="111.08"><note default-x="10.00" default-y="-10.00"><pitch><step>D</step><octave>5</octave></pitch><duration>1</duration><voice>1</voice><type>quarter</type><stem>down</stem></note><note default-x="34.87" default-y="-5.00"><pitch><step>E</step><octave>5</octave></pitch><duration>1</duration><voice>1</voice><type>quarter</type><stem>down</stem></note><note default-x="59.74" default-y="0.00"><pitch><step>F</step><alter>1</alter><octave>5</octave></pitch><duration>1</duration><voice>1</voice><type>quarter</type><stem>down</stem></note><note default-x="84.61" default-y="5.00"><pitch><step>G</step><octave>5</octave></pitch><duration>1</duration><voice>1</voice><type>quarter</type><stem>down</stem></note></measure><measure number="22" width="142.24"><note default-x="13.80" default-y="10.00"><pitch><step>A</step><octave>5</octave></pitch><duration>1</duration><voice>1</voice><type>quarter</type><stem>down</stem></note><note default-x="45.51" default-y="15.00"><pitch><step>B</step><octave>5</octave></pitch><duration>1</duration><voice>1</voice><type>quarter</type><stem>down</stem></note><note default-x="77.22" default-y="20.00"><pitch><step>C</step><alter>1</alter><octave>6</octave></pitch><duration>1</duration><voice>1</voice><type>quarter</type><stem>down</stem></note><note default-x="108.93" default-y="25.00"><pitch><step>D</step><octave>6</octave></pitch><duration>1</duration><voice>1</voice><type>quarter</type><stem>down</stem></note></measure><measure number="23" width="142.24"><note default-x="13.80" default-y="25.00"><pitch><step>D</step><octave>6</octave></pitch><duration>1</duration><voice>1</voice><type>quarter</type><stem>down</stem></note><note default-x="45.51" default-y="20.00"><pitch><step>C</step><alter>1</alter><octave>6</octave></pitch><duration>1</duration><voice>1</voice><type>quarter</type><stem>down</stem></note><note default-x="77.22" default-y="15.00"><pitch><step>B</step><octave>5</octave></pitch><duration>1</duration><voice>1</voice><type>quarter</type><stem>down</stem></note><note default-x="108.93" default-y="10.00"><pitch><step>A</step><octave>5</octave></pitch><duration>1</duration><voice>1</voice><type>quarter</type><stem>down</stem></note></measure><measure number="24" width="111.08"><note default-x="10.00" default-y="5.00"><pitch><step>G</step><octave>5</octave></pitch><duration>1</duration><voice>1</voice><type>quarter</type><stem>down</stem></note><note default-x="34.87" default-y="0.00"><pitch><step>F</step><alter>1</alter><octave>5</octave></pitch><duration>1</duration><voice>1</voice><type>quarter</type><stem>down</stem></note><note default-x="59.74" default-y="-5.00"><pitch><step>E</step><octave>5</octave></pitch><duration>1</duration><voice>1</voice><type>quarter</type><stem>down</stem></note><note default-x="84.61" default-y="-10.00"><pitch><step>D</step><octave>5</octave></pitch><duration>1</duration><voice>1</voice><type>quarter</type><stem>down</stem></note></measure><measure number="25" width="219.34"><print new-system="yes"><system-layout><system-margins><left-margin>0.00</left-margin><right-margin>-0.00</right-margin></system-margins><system-distance>150.00</system-distance></system-layout></print><note default-x="89.19" default-y="-45.00"><pitch><step>D</step><octave>4</octave></pitch><duration>1</duration><voice>1</voice><type>quarter</type><stem>up</stem><lyric number="1" default-x="6.58" default-y="-46.30" relative-y="-30.00"><syllabic>single</syllabic><text>D</text></lyric></note><note default-x="121.33" default-y="-40.00"><pitch><step>E</step><octave>4</octave></pitch><duration>1</duration><voice>1</voice><type>quarter</type><stem>up</stem><lyric number="1" default-x="6.58" default-y="-46.30" relative-y="-30.00"><syllabic>single</syllabic><text>E</text></lyric></note><note default-x="153.46" default-y="-35.00"><pitch><step>F</step><alter>1</alter><octave>4</octave></pitch><duration>1</duration><voice>1</voice><type>quarter</type><stem>up</stem><lyric number="1" default-x="12.18" default-y="-46.30" relative-y="-30.00"><syllabic>single</syllabic><text>F#</text></lyric></note><note default-x="185.60" default-y="-30.00"><pitch><step>G</step><octave>4</octave></pitch><duration>1</duration><voice>1</voice><type>quarter</type><stem>up</stem><lyric number="1" default-x="6.58" default-y="-46.30" relative-y="-30.00"><syllabic>single</syllabic><text>G</text></lyric></note></measure><measure number="26" width="144.26"><note default-x="11.22" default-y="-25.00"><pitch><step>A</step><octave>4</octave></pitch><duration>1</duration><voice>1</voice><type>quarter</type><stem>up</stem><lyric number="1" default-x="6.58" default-y="-46.30" relative-y="-30.00"><syllabic>single</syllabic><text>A</text></lyric></note><note default-x="44.08" default-y="-20.00"><pitch><step>B</step><octave>4</octave></pitch><duration>1</duration><voice>1</voice><type>quarter</type><stem>down</stem><lyric number="1" default-x="6.58" default-y="-46.30" relative-y="-30.00"><syllabic>single</syllabic><text>B</text></lyric></note><note default-x="76.94" default-y="-15.00"><pitch><step>C</step><alter>1</alter><octave>5</octave></pitch><duration>1</duration><voice>1</voice><type>quarter</type><stem>down</stem><lyric number="1" default-x="8.38" default-y="-46.30" relative-x="-4.00" relative-y="-30.00"><syllabic>single</syllabic><text>C#</text></lyric></note><note default-x="109.80" default-y="-10.00"><pitch><step>D</step><octave>5</octave></pitch><duration>1</duration><voice>1</voice><type>quarter</type><stem>down</stem><lyric number="1" default-x="5.58" default-y="-46.30" relative-x="-1.00" relative-y="-30.00"><syllabic>single</syllabic><text>D</text></lyric></note></measure><measure number="27" width="123.00"><note default-x="10.00" default-y="-10.00"><pitch><step>D</step><octave>5</octave></pitch><duration>1</duration><voice>1</voice><type>quarter</type><stem>down</stem></note><note default-x="37.85" default-y="-15.00"><pitch><step>C</step><alter>1</alter><octave>5</octave></pitch><duration>1</duration><voice>1</voice><type>quarter</type><stem>down</stem></note><note default-x="65.70" default-y="-20.00"><pitch><step>B</step><octave>4</octave></pitch><duration>1</duration><voice>1</voice><type>quarter</type><stem>down</stem></note><note default-x="93.55" default-y="-25.00"><pitch><step>A</step><octave>4</octave></pitch><duration>1</duration><voice>1</voice><type>quarter</type><stem>up</stem></note></measure><measure number="28" width="123.00"><note default-x="10.00" default-y="-30.00"><pitch><step>G</step><octave>4</octave></pitch><duration>1</duration><voice>1</voice><type>quarter</type><stem>up</stem></note><note default-x="37.85" default-y="-35.00"><pitch><step>F</step><alter>1</alter><octave>4</octave></pitch><duration>1</duration><voice>1</voice><type>quarter</type><stem>up</stem></note><note default-x="65.70" default-y="-40.00"><pitch><step>E</step><octave>4</octave></pitch><duration>1</duration><voice>1</voice><type>quarter</type><stem>up</stem></note><note default-x="93.55" default-y="-45.00"><pitch><step>D</step><octave>4</octave></pitch><duration>1</duration><voice>1</voice><type>quarter</type><stem>up</stem></note></measure><measure number="29" width="123.00"><note default-x="10.00" default-y="-45.00"><pitch><step>D</step><octave>4</octave></pitch><duration>1</duration><voice>1</voice><type>quarter</type><stem>up</stem></note><note default-x="37.85" default-y="-40.00"><pitch><step>E</step><octave>4</octave></pitch><duration>1</duration><voice>1</voice><type>quarter</type><stem>up</stem></note><note default-x="65.70" default-y="-35.00"><pitch><step>F</step><alter>1</alter><octave>4</octave></pitch><duration>1</duration><voice>1</voice><type>quarter</type><stem>up</stem></note><note default-x="93.55" default-y="-30.00"><pitch><step>G</step><octave>4</octave></pitch><duration>1</duration><voice>1</voice><type>quarter</type><stem>up</stem></note></measure><measure number="30" width="123.00"><note default-x="10.00" default-y="-25.00"><pitch><step>A</step><octave>4</octave></pitch><duration>1</duration><voice>1</voice><type>quarter</type><stem>up</stem></note><note default-x="37.85" default-y="-20.00"><pitch><step>B</step><octave>4</octave></pitch><duration>1</duration><voice>1</voice><type>quarter</type><stem>down</stem></note><note default-x="65.70" default-y="-15.00"><pitch><step>C</step><alter>1</alter><octave>5</octave></pitch><duration>1</duration><voice>1</voice><type>quarter</type><stem>down</stem></note><note default-x="93.55" default-y="-10.00"><pitch><step>D</step><octave>5</octave></pitch><duration>1</duration><voice>1</voice><type>quarter</type><stem>down</stem></note></measure><measure number="31" width="123.00"><note default-x="10.00" default-y="-10.00"><pitch><step>D</step><octave>5</octave></pitch><duration>1</duration><voice>1</voice><type>quarter</type><stem>down</stem></note><note default-x="37.85" default-y="-15.00"><pitch><step>C</step><alter>1</alter><octave>5</octave></pitch><duration>1</duration><voice>1</voice><type>quarter</type><stem>down</stem></note><note default-x="65.70" default-y="-20.00"><pitch><step>B</step><octave>4</octave></pitch><duration>1</duration><voice>1</voice><type>quarter</type><stem>down</stem></note><note default-x="93.55" default-y="-25.00"><pitch><step>A</step><octave>4</octave></pitch><duration>1</duration><voice>1</voice><type>quarter</type><stem>up</stem></note></measure><measure number="32" width="132.00"><note default-x="10.00" default-y="-30.00"><pitch><step>G</step><octave>4</octave></pitch><duration>1</duration><voice>1</voice><type>quarter</type><stem>up</stem></note><note default-x="37.85" default-y="-35.00"><pitch><step>F</step><alter>1</alter><octave>4</octave></pitch><duration>1</duration><voice>1</voice><type>quarter</type><stem>up</stem></note><note default-x="65.70" default-y="-40.00"><pitch><step>E</step><octave>4</octave></pitch><duration>1</duration><voice>1</voice><type>quarter</type><stem>up</stem></note><note default-x="93.55" default-y="-45.00"><pitch><step>D</step><octave>4</octave></pitch><duration>1</duration><voice>1</voice><type>quarter</type><stem>up</stem></note><barline location="right"><bar-style>light-heavy</bar-style></barline></measure></part></score-partwise>