<?xml version="1.0" encoding="UTF-8"?><!DOCTYPE score-partwise PUBLIC "-//Recordare//DTD MusicXML 3.1 Partwise//EN" "http://www.musicxml.org/dtds/partwise.dtd"><score-partwise version="3.1"><work><work-title>G Major Scale</work-title></work><identification><rights>MIT License</rights><encoding><software>MuseScore 3.3.2</software><encoding-date>2019-11-25</encoding-date><supports element="accidental" type="yes"/><supports element="beam" type="yes"/><supports element="print" attribute="new-page" type="yes" value="yes"/><supports element="print" attribute="new-system" type="yes" value="yes"/><supports element="stem" type="yes"/></encoding></identification><defaults><scaling><millimeters>7.05556</millimeters><tenths>40</tenths></scaling><page-layout><page-height>1584</page-height><page-width>1224</page-width><page-margins type="even"><left-margin>56.6929</left-margin><right-margin>56.6929</right-margin><top-margin>56.6929</top-margin><bottom-margin>113.386</bottom-margin></page-margins><page-margins type="odd"><left-margin>56.6929</left-margin><right-margin>56.6929</right-margin><top-margin>56.6929</top-margin><bottom-margin>113.386</bottom-margin></page-margins></page-layout><word-font font-family="FreeSerif" font-size="10"/><lyric-font font-family="FreeSerif" font-size="11"/></defaults><credit page="1"><credit-words default-x="612" default-y="1527.31" justify="center" valign="top" font-size="24">G Major Scale</credit-words></credit><credit page="1"><credit-words default-x="612" default-y="113.386" justify="center" valign="bottom" font-size="8">MIT License</credit-words></credit><part-list><score-part id="P1"><part-name>Piano</part-name><part-abbreviation>Pno.</part-abbreviation><score-instrument id="P1-I1"><instrument-name>Piano</instrument-name></score-instrument><midi-device id="P1-I1" port="1"></midi-device><midi-instrument id="P1-I1"><midi-channel>1</midi-channel><midi-program>1</midi-program><volume>78.7402</volume><pan>0</pan></midi-instrument></score-part></part-list><part id="P1"><measure number="1" width="180.99"><print><system-layout><system-margins><left-margin>0.00</left-margin><right-margin>-0.00</right-margin></system-margins><top-system-distance>170.00</top-system-distance></system-layout></print><attributes><divisions>1</divisions><key><fifths>0</fifths></key><time><beats>4</beats><beat-type>4</beat-type></time><clef><sign>G</sign><line>2</line></clef></attributes><note default-x="79.27" default-y="-30.00"><pitch><step>G</step><octave>4</octave></pitch><duration>1</duration><voice>1</voice><type>quarter</type><stem>up</stem><lyric number="1" default-x="6.58" default-y="-46.30" relative-y="-30.00"><syllabic>single</syllabic><text>G</text></lyric></note><note default-x="104.30" default-y="-25.00"><pitch><step>A</step><octave>4</octave></pitch><duration>1</duration><voice>1</voice><type>quarter</type><stem>up</stem><lyric number="1" default-x="6.58" default-y="-46.30" relative-y="-30.00"><syllabic>single</syllabic><text>A</text></lyric></note><note default-x="129.33" default-y="-20.00"><pitch><step>B</step><octave>4</octave></pitch><duration>1</duration><voice>1</voice><type>quarter</type><stem>down</stem><lyric number="1" default-x="6.58" default-y="-46.30" relative-y="-30.00"><syllabic>single</syllabic><text>B</text></lyric></note><note default-x="154.36" default-y="-15.00"><pitch><step>C</step><octave>5</octave></pitch><duration>1</duration><voice>1</voice><type>quarter</type><stem>down</stem><lyric number="1" default-x="6.58" default-y="-46.30" relative-y="-30.00"><syllabic>single</syllabic><text>C</text></lyric></note></measure><measure number="2" width="142.96"><note default-x="11.02" default-y="-10.00"><pitch><step>D</step><octave>5</octave></pitch><duration>1</duration><voice>1</voice><type>quarter</type><stem>down</stem><lyric number="1" default-x="6.58" default-y="-46.30" relative-y="-30.00"><syllabic>single</syllabic><text>D</text></lyric></note><note default-x="43.60" default-y="-5.00"><pitch><step>E</step><octave>5</octave></pitch><duration>1</duration><voice>1</voice><type>quarter</type><stem>down</stem><lyric number="1" default-x="6.58" default-y="-46.30" relative-y="-30.00"><syllabic>single</syllabic><text>E</text></lyric></note><note default-x="76.19" default-y="0.00"><pitch><step>F</step><alter>1</alter><octave>5</octave></pitch><duration>1</duration><voice>1</voice><type>quarter</type><accidental>sharp</accidental><stem>down</stem><lyric number="1" default-x="12.18" default-y="-46.30" relative-y="-30.00"><syllabic>single</syllabic><text>F#</text></lyric></note><note default-x="108.77" default-y="5.00"><pitch><step>G</step><octave>5</octave></pitch><duration>1</duration><voice>1</voice><type>quarter</type><stem>down</stem><lyric number="1" default-x="6.58" default-y="-46.30" relative-y="-30.00"><syllabic>single</syllabic><text>G</text></lyric></note></measure><measure number="3" width="141.48"><note default-x="11.22" default-y="5.00"><pitch><step>G</step><octave>5</octave></pitch><duration>1</duration><voice>1</voice><type>quarter</type><stem>down</stem><lyric number="1" default-x="6.58" default-y="-46.30" relative-y="-30.00"><syllabic>single</syllabic><text>G</text></lyric></note><note default-x="43.38" default-y="0.00"><pitch><step>F</step><alter>1</alter><octave>5</octave></pitch><duration>1</duration><voice>1</voice><type>quarter</type><accidental>sharp</accidental><stem>down</stem><lyric number="1" default-x="12.18" default-y="-46.30" relative-y="-30.00"><syllabic>single</syllabic><text>F#</text></lyric></note><note default-x="75.55" default-y="-5.00"><pitch><step>E</step><octave>5</octave></pitch><duration>1</duration><voice>1</voice><type>quarter</type><stem>down</stem><lyric number="1" default-x="6.58" default-y="-46.30" relative-y="-30.00"><syllabic>single</syllabic><text>E</text></lyric></note><note default-x="107.71" default-y="-10.00"><pitch><step>D</step><octave>5</octave></pitch><duration>1</duration><voice>1</voice><type>quarter</type><stem>down</stem><lyric number="1" default-x="6.58" default-y="-46.30" relative-y="-30.00"><syllabic>single</syllabic><text>D</text></lyric></note></measure><measure number="4" width="113.10"><note default-x="10.42" default-y="-15.00"><pitch><step>C</step><octave>5</octave></pitch><duration>1</duration><voice>1</voice><type>quarter</type><stem>down</stem><lyric number="1" default-x="6.58" default-y="-46.30" relative-y="-30.00"><syllabic>single</syllabic><text>C</text></lyric></note><note default-x="35.69" default-y="-20.00"><pitch><step>B</step><octave>4</octave></pitch><duration>1</duration><voice>1</voice><type>quarter</type><stem>down</stem><lyric number="1" default-x="6.58" default-y="-46.30" relative-y="-30.00"><syllabic>single</syllabic><text>B</text></lyric></note><note default-x="60.96" default-y="-25.00"><pitch><step>A</step><octave>4</octave></pitch><duration>1</duration><voice>1</voice><type>quarter</type><stem>up</stem><lyric number="1" default-x="6.58" default-y="-46.30" relative-y="-30.00"><syllabic>single</syllabic><text>A</text></lyric></note><note default-x="86.23" default-y="-30.00"><pitch><step>G</step><octave>4</octave></pitch><duration>1</duration><voice>1</voice><type>quarter</type><stem>up</stem><lyric number="1" default-x="6.58" default-y="-46.30" relative-y="-30.00"><syllabic>single</syllabic><text>G</text></lyric></note></measure><measure number="5" width="112.94"><note default-x="11.22" default-y="-30.00"><pitch><step>G</step><octave>4</octave></pitch><duration>1</duration><voice>1</voice><type>quarter</type><stem>up</stem><lyric number="1" default-x="6.58" default-y="-46.30" relative-y="-30.00"><syllabic>single</syllabic><text>G</text></lyric></note><note default-x="36.25" default-y="-25.00"><pitch><step>A</step><octave>4</octave></pitch><duration>1</duration><voice>1</voice><type>quarter</type><stem>up</stem><lyric number="1" default-x="6.58" default-y="-46.30" relative-y="-30.00"><syllabic>single</syllabic><text>A</text></lyric></note><note default-x="61.28" default-y="-20.00"><pitch><step>B</step><octave>4</octave></pitch><duration>1</duration><voice>1</voice><type>quarter</type><stem>down</stem><lyric number="1" default-x="6.58" default-y="-46.30" relative-y="-30.00"><syllabic>single</syllabic><text>B</text></lyric></note><note default-x="86.31" default-y="-15.00"><pitch><step>C</step><octave>5</octave></pitch><duration>1</duration><voice>1</voice><type>quarter</type><stem>down</stem><lyric number="1" default-x="6.58" default-y="-46.30" relative-y="-30.00"><syllabic>single</syllabic><text>C</text></lyric></note></measure><measure number="6" width="142.96"><note default-x="11.02" default-y="-10.00"><pitch><step>D</step><octave>5</octave></pitch><duration>1</duration><voice>1</voice><type>quarter</type><stem>down</stem><lyric number="1" default-x="6.58" default-y="-46.30" relative-y="-30.00"><syllabic>single</syllabic><text>D</text></lyric></note><note default-x="43.60" default-y="-5.00"><pitch><step>E</step><octave>5</octave></pitch><duration>1</duration><voice>1</voice><type>quarter</type><stem>down</stem><lyric number="1" default-x="6.58" default-y="-46.30" relative-y="-30.00"><syllabic>single</syllabic><text>E</text></lyric></note><note default-x="76.19" default-y="0.00"><pitch><step>F</step><alter>1</alter><octave>5</octave></pitch><duration>1</duration><voice>1</voice><type>quarter</type><accidental>sharp</accidental><stem>down</stem><lyric number="1" default-x="12.18" default-y="-46.30" relative-y="-30.00"><syllabic>single</syllabic><text>F#</text></lyric></note><note default-x="108.77" default-y="5.00"><pitch><step>G</step><octave>5</octave></pitch><duration>1</duration><voice>1</voice><type>quarter</type><stem>down</stem><lyric number="1" default-x="6.58" default-y="-46.30" relative-y="-30.00"><syllabic>single</syllabic><text>G</text></lyric></note></measure><measure number="7" width="141.48"><note default-x="11.22" default-y="5.00"><pitch><step>G</step><octave>5</octave></pitch><duration>1</duration><voice>1</voice><type>quarter</type><stem>down</stem><lyric number="1" default-x="6.58" default-y="-46.30" relative-y="-30.00"><syllabic>single</syllabic><text>G</text></lyric></note><note default-x="43.38" default-y="0.00"><pitch><step>F</step><alter>1</alter><octave>5</octave></pitch><duration>1</duration><voice>1</voice><type>quarter</type><accidental>sharp</accidental><stem>down</stem><lyric number="1" default-x="12.18" default-y="-46.30" relative-y="-30.00"><syllabic>single</syllabic><text>F#</text></lyric></note><note default-x="75.55" default-y="-5.00"><pitch><step>E</step><octave>5</octave></pitch><duration>1</duration><voice>1</voice><type>quarter</type><stem>down</stem><lyric number="1" default-x="6.58" default-y="-46.30" relative-y="-30.00"><syllabic>single</syllabic><text>E</text></lyric></note><note default-x="107.71" default-y="-10.00"><pitch><step>D</step><octave>5</octave></pitch><duration>1</duration><voice>1</voice><type>quarter</type><stem>down</stem><lyric number="1" default-x="6.58" default-y="-46.30" relative-y="-30.00"><syllabic>single</syllabic><text>D</text></lyric></note></measure><measure number="8" width="134.72"><note default-x="10.42" default-y="-15.00"><pitch><step>C</step><octave>5</octave></pitch><duration>1</duration><voice>1</voice><type>quarter</type><stem>down</stem><lyric number="1" default-x="6.58" default-y="-46.30" relative-y="-30.00"><syllabic>single</syllabic><text>C</text></lyric></note><note default-x="35.69" default-y="-20.00"><pitch><step>B</step><octave>4</octave></pitch><duration>1</duration><voice>1</voice><type>quarter</type><stem>down</stem><lyric number="1" default-x="6.58" default-y="-46.30" relative-y="-30.00"><syllabic>single</syllabic><text>B</text></lyric></note><note default-x="60.96" default-y="-25.00"><pitch><step>A</step><octave>4</octave></pitch><duration>1</duration><voice>1</voice><type>quarter</type><stem>up</stem><lyric number="1" default-x="6.58" default-y="-46.30" relative-y="-30.00"><syllabic>single</syllabic><text>A</text></lyric></note><note default-x="86.23" default-y="-30.00"><pitch><step>G</step><octave>4</octave></pitch><duration>1</duration><voice>1</voice><type>quarter</type><stem>up</stem><lyric number="1" default-x="6.58" default-y="-46.30" relative-y="-30.00"><syllabic>single</syllabic><text>G</text></lyric></note><barline location="right"><bar-style>light-light</bar-style></barline></measure><measure number="9" width="191.50"><print new-system="yes"><system-layout><system-margins><left-margin>0.00</left-margin><right-margin>-0.00</right-margin></system-margins><system-distance>150.00</system-distance></system-layout></print><attributes><key><fifths>1</fifths></key></attributes><direction><direction-type><words default-y="1.40" relative-x="-42.00" relative-y="23.00">Notice the key signature</words></direction-type></direction><note default-x="79.19" default-y="-30.00"><pitch><step>G</step><octave>4</octave></pitch><duration>1</duration><voice>1</voice><type>quarter</type><stem>up</stem><lyric number="1" default-x="6.58" default-y="-46.30" relative-y="-30.00"><syllabic>single</syllabic><text>G</text></lyric></note><note default-x="106.87" default-y="-25.00"><pitch><step>A</step><octave>4</octave></pitch><duration>1</duration><voice>1</voice><type>quarter</type><stem>up</stem><lyric number="1" default-x="6.58" default-y="-46.30" relative-y="-30.00"><syllabic>single</syllabic><text>A</text></lyric></note><note default-x="134.54" default-y="-20.00"><pitch><step>B</step><octave>4</octave></pitch><duration>1</duration><voice>1</voice><type>quarter</type><stem>down</stem><lyric number="1" default-x="6.58" default-y="-46.30" relative-y="-30.00"><syllabic>single</syllabic><text>B</text></lyric></note><note default-x="162.22" default-y="-15.00"><pitch><step>C</step><octave>5</octave></pitch><duration>1</duration><voice>1</voice><type>quarter</type><stem>down</stem><lyric number="1" default-x="6.58" default-y="-46.30" relative-y="-30.00"><syllabic>single</syllabic><text>C</text></lyric></note></measure><measure number="10" width="135.04"><note default-x="11.02" default-y="-10.00"><pitch><step>D</step><octave>5</octave></pitch><duration>1</duration><voice>1</voice><type>quarter</type><stem>down</stem><lyric number="1" default-x="6.58" default-y="-46.30" relative-y="-30.00"><syllabic>single</syllabic><text>D</text></lyric></note><note default-x="41.62" default-y="-5.00"><pitch><step>E</step><octave>5</octave></pitch><duration>1</duration><voice>1</voice><type>quarter</type><stem>down</stem><lyric number="1" default-x="6.58" default-y="-46.30" relative-y="-30.00"><syllabic>single</syllabic><text>E</text></lyric></note><note default-x="72.23" default-y="0.00"><pitch><step>F</step><alter>1</alter><octave>5</octave></pitch><duration>1</duration><voice>1</voice><type>quarter</type><stem>down</stem><lyric number="1" default-x="12.18" default-y="-46.30" relative-y="-30.00"><syllabic>single</syllabic><text>F#</text></lyric></note><note default-x="102.84" default-y="5.00"><pitch><step>G</step><octave>5</octave></pitch><duration>1</duration><voice>1</voice><type>quarter</type><stem>down</stem><lyric number="1" default-x="6.58" default-y="-46.30" relative-y="-30.00"><syllabic>single</syllabic><text>G</text></lyric></note></measure><measure number="11" width="134.57"><note default-x="11.22" default-y="5.00"><pitch><step>G</step><octave>5</octave></pitch><duration>1</duration><voice>1</voice><type>quarter</type><stem>down</stem><lyric number="1" default-x="6.58" default-y="-46.30" relative-y="-30.00"><syllabic>single</syllabic><text>G</text></lyric></note><note default-x="41.65" default-y="0.00"><pitch><step>F</step><alter>1</alter><octave>5</octave></pitch><duration>1</duration><voice>1</voice><type>quarter</type><stem>down</stem><lyric number="1" default-x="12.18" default-y="-46.30" relative-y="-30.00"><syllabic>single</syllabic><text>F#</text></lyric></note><note default-x="72.09" default-y="-5.00"><pitch><step>E</step><octave>5</octave></pitch><duration>1</duration><voice>1</voice><type>quarter</type><stem>down</stem><lyric number="1" default-x="6.58" default-y="-46.30" relative-y="-30.00"><syllabic>single</syllabic><text>E</text></lyric></note><note default-x="102.53" default-y="-10.00"><pitch><step>D</step><octave>5</octave></pitch><duration>1</duration><voice>1</voice><type>quarter</type><stem>down</stem><lyric number="1" default-x="6.58" default-y="-46.30" relative-y="-30.00"><syllabic>single</syllabic><text>D</text></lyric></note></measure><measure number="12" width="123.69"><note default-x="10.42" default-y="-15.00"><pitch><step>C</step><octave>5</octave></pitch><duration>1</duration><voice>1</voice><type>quarter</type><stem>down</stem><lyric number="1" default-x="6.58" default-y="-46.30" relative-y="-30.00"><syllabic>single</syllabic><text>C</text></lyric></note><note default-x="38.33" default-y="-20.00"><pitch><step>B</step><octave>4</octave></pitch><duration>1</duration><voice>1</voice><type>quarter</type><stem>down</stem><lyric number="1" default-x="6.58" default-y="-46.30" relative-y="-30.00"><syllabic>single</syllabic><text>B</text></lyric></note><note default-x="66.25" default-y="-25.00"><pitch><step>A</step><octave>4</octave></pitch><duration>1</duration><voice>1</voice><type>quarter</type><stem>up</stem><lyric number="1" default-x="6.58" default-y="-46.30" relative-y="-30.00"><syllabic>single</syllabic><text>A</text></lyric></note><note default-x="94.17" default-y="-30.00"><pitch><step>G</step><octave>4</octave></pitch><duration>1</duration><voice>1</voice><type>quarter</type><stem>up</stem><lyric number="1" default-x="6.58" default-y="-46.30" relative-y="-30.00"><syllabic>single</syllabic><text>G</text></lyric></note></measure><measure number="13" width="123.53"><note default-x="11.22" default-y="-30.00"><pitch><step>G</step><octave>4</octave></pitch><duration>1</duration><voice>1</voice><type>quarter</type><stem>up</stem><lyric number="1" default-x="6.58" default-y="-46.30" relative-y="-30.00"><syllabic>single</syllabic><text>G</text></lyric></note><note default-x="38.89" default-y="-25.00"><pitch><step>A</step><octave>4</octave></pitch><duration>1</duration><voice>1</voice><type>quarter</type><stem>up</stem><lyric number="1" default-x="6.58" default-y="-46.30" relative-y="-30.00"><syllabic>single</syllabic><text>A</text></lyric></note><note default-x="66.57" default-y="-20.00"><pitch><step>B</step><octave>4</octave></pitch><duration>1</duration><voice>1</voice><type>quarter</type><stem>down</stem><lyric number="1" default-x="6.58" default-y="-46.30" relative-y="-30.00"><syllabic>single</syllabic><text>B</text></lyric></note><note default-x="94.25" default-y="-15.00"><pitch><step>C</step><octave>5</octave></pitch><duration>1</duration><voice>1</voice><type>quarter</type><stem>down</stem><lyric number="1" default-x="6.58" default-y="-46.30" relative-y="-30.00"><syllabic>single</syllabic><text>C</text></lyric></note></measure><measure number="14" width="135.04"><note default-x="11.02" default-y="-10.00"><pitch><step>D</step><octave>5</octave></pitch><duration>1</duration><voice>1</voice><type>quarter</type><stem>down</stem><lyric number="1" default-x="6.58" default-y="-46.30" relative-y="-30.00"><syllabic>single</syllabic><text>D</text></lyric></note><note default-x="41.62" default-y="-5.00"><pitch><step>E</step><octave>5</octave></pitch><duration>1</duration><voice>1</voice><type>quarter</type><stem>down</stem><lyric number="1" default-x="6.58" default-y="-46.30" relative-y="-30.00"><syllabic>single</syllabic><text>E</text></lyric></note><note default-x="72.23" default-y="0.00"><pitch><step>F</step><alter>1</alter><octave>5</octave></pitch><duration>1</duration><voice>1</voice><type>quarter</type><stem>down</stem><lyric number="1" default-x="12.18" default-y="-46.30" relative-y="-30.00"><syllabic>single</syllabic><text>F#</text></lyric></note><note default-x="102.84" default-y="5.00"><pitch><step>G</step><octave>5</octave></pitch><duration>1</duration><voice>1</voice><type>quarter</type><stem>down</stem><lyric number="1" default-x="6.58" default-y="-46.30" relative-y="-30.00"><syllabic>single</syllabic><text>G</text></lyric></note></measure><measure number="15" width="134.57"><note default-x="11.22" default-y="5.00"><pitch><step>G</step><octave>5</octave></pitch><duration>1</duration><voice>1</voice><type>quarter</type><stem>down</stem><lyric number="1" default-x="6.58" default-y="-46.30" relative-y="-30.00"><syllabic>single</syllabic><text>G</text></lyric></note><note default-x="41.65" default-y="0.00"><pitch><step>F</step><alter>1</alter><octave>5</octave></pitch><duration>1</duration><voice>1</voice><type>quarter</type><stem>down</stem><lyric number="1" default-x="12.18" default-y="-46.30" relative-y="-30.00"><syllabic>single</syllabic><text>F#</text></lyric></note><note default-x="72.09" default-y="-5.00"><pitch><step>E</step><octave>5</octave></pitch><duration>1</duration><voice>1</voice><type>quarter</type><stem>down</stem><lyric number="1" default-x="6.58" default-y="-46.30" relative-y="-30.00"><syllabic>single</syllabic><text>E</text></lyric></note><note default-x="102.53" default-y="-10.00"><pitch><step>D</step><octave>5</octave></pitch><duration>1</duration><voice>1</voice><type>quarter</type><stem>down</stem><lyric number="1" default-x="6.58" default-y="-46.30" relative-y="-30.00"><syllabic>single</syllabic><text>D</text></lyric></note></measure><measure number="16" width="132.69"><note default-x="10.42" default-y="-15.00"><pitch><step>C</step><octave>5</octave></pitch><duration>1</duration><voice>1</voice><type>quarter</type><stem>down</stem><lyric number="1" default-x="6.58" default-y="-46.30" relative-y="-30.00"><syllabic>single</syllabic><text>C</text></lyric></note><note default-x="38.33" default-y="-20.00"><pitch><step>B</step><octave>4</octave></pitch><duration>1</duration><voice>1</voice><type>quarter</type><stem>down</stem><lyric number="1" default-x="6.58" default-y="-46.30" relative-y="-30.00"><syllabic>single</syllabic><text>B</text></lyric></note><note default-x="66.25" default-y="-25.00"><pitch><step>A</step><octave>4</octave></pitch><duration>1</duration><voice>1</voice><type>quarter</type><stem>up</stem><lyric number="1" default-x="6.58" default-y="-46.30" relative-y="-30.00"><syllabic>single</syllabic><text>A</text></lyric></note><note default-x="94.17" default-y="-30.00"><pitch><step>G</step><octave>4</octave></pitch><duration>1</duration><voice>1</voice><type>quarter</type><stem>up</stem><lyric number="1" default-x="6.58" default-y="-46.30" relative-y="-30.00"><syllabic>single</syllabic><text>G</text></lyric></note><barline location="right"><bar-style>light-heavy</bar-style></barline></measure></part></score-partwise>