<?xml version="1.0" encoding="UTF-8"?><!DOCTYPE score-partwise PUBLIC "-//Recordare//DTD MusicXML 3.1 Partwise//EN" "http://www.musicxml.org/dtds/partwise.dtd"><score-partwise version="3.1"><work><work-title>Learn Notes II</work-title></work><identification><rights>MIT License</rights><encoding><software>MuseScore 3.3.2</software><encoding-date>2019-11-25</encoding-date><supports element="accidental" type="yes"/><supports element="beam" type="yes"/><supports element="print" attribute="new-page" type="yes" value="yes"/><supports element="print" attribute="new-system" type="yes" value="yes"/><supports element="stem" type="yes"/></encoding></identification><defaults><scaling><millimeters>7.05556</millimeters><tenths>40</tenths></scaling><page-layout><page-height>1584</page-height><page-width>1224</page-width><page-margins type="even"><left-margin>56.6929</left-margin><right-margin>56.6929</right-margin><top-margin>56.6929</top-margin><bottom-margin>113.386</bottom-margin></page-margins><page-margins type="odd"><left-margin>56.6929</left-margin><right-margin>56.6929</right-margin><top-margin>56.6929</top-margin><bottom-margin>113.386</bottom-margin></page-margins></page-layout><word-font font-family="FreeSerif" font-size="10"/><lyric-font font-family="FreeSerif" font-size="11"/></defaults><credit page="1"><credit-words default-x="612" default-y="1527.31" justify="center" valign="top" font-size="24">Learn Notes II</credit-words></credit><credit page="1"><credit-words default-x="612" default-y="113.386" justify="center" valign="bottom" font-size="8">MIT License</credit-words></credit><part-list><score-part id="P1"><part-name>Piano</part-name><part-abbreviation>Pno.</part-abbreviation><score-instrument id="P1-I1"><instrument-name>Piano</instrument-name></score-instrument><midi-device id="P1-I1" port="1"></midi-device><midi-instrument id="P1-I1"><midi-channel>1</midi-channel><midi-program>1</midi-program><volume>78.7402</volume><pan>0</pan></midi-instrument></score-part></part-list><part id="P1"><measure number="1" width="329.07"><print><system-layout><system-margins><left-margin>0.00</left-margin><right-margin>0.00</right-margin></system-margins><top-system-distance>170.00</top-system-distance></system-layout></print><attributes><divisions>2</divisions><key><fifths>0</fifths></key><time><beats>4</beats><beat-type>4</beat-type></time><clef><sign>G</sign><line>2</line></clef></attributes><note default-x="79.27" default-y="-35.00"><pitch><step>F</step><octave>4</octave></pitch><duration>1</duration><voice>1</voice><type>eighth</type><stem>up</stem><beam number="1">begin</beam><lyric number="1" default-x="6.58" default-y="-54.87" relative-y="-30.00"><syllabic>single</syllabic><text>F</text></lyric></note><note default-x="110.29" default-y="-35.00"><pitch><step>F</step><octave>4</octave></pitch><duration>1</duration><voice>1</voice><type>eighth</type><stem>up</stem><beam number="1">continue</beam><lyric number="1" default-x="6.58" default-y="-54.87" relative-y="-30.00"><syllabic>single</syllabic><text>F</text></lyric></note><note default-x="141.32" default-y="-25.00"><pitch><step>A</step><octave>4</octave></pitch><duration>1</duration><voice>1</voice><type>eighth</type><stem>up</stem><beam number="1">continue</beam><lyric number="1" default-x="6.58" default-y="-54.87" relative-y="-30.00"><syllabic>single</syllabic><text>A</text></lyric></note><note default-x="172.34" default-y="-25.00"><pitch><step>A</step><octave>4</octave></pitch><duration>1</duration><voice>1</voice><type>eighth</type><stem>up</stem><beam number="1">end</beam><lyric number="1" default-x="6.58" default-y="-54.87" relative-y="-30.00"><syllabic>single</syllabic><text>A</text></lyric></note><note default-x="203.37" default-y="-15.00"><pitch><step>C</step><octave>5</octave></pitch><duration>1</duration><voice>1</voice><type>eighth</type><stem>down</stem><beam number="1">begin</beam><lyric number="1" default-x="6.58" default-y="-54.87" relative-y="-30.00"><syllabic>single</syllabic><text>C</text></lyric></note><note default-x="234.39" default-y="-15.00"><pitch><step>C</step><octave>5</octave></pitch><duration>1</duration><voice>1</voice><type>eighth</type><stem>down</stem><beam number="1">continue</beam><lyric number="1" default-x="6.58" default-y="-54.87" relative-y="-30.00"><syllabic>single</syllabic><text>C</text></lyric></note><note default-x="265.42" default-y="-5.00"><pitch><step>E</step><octave>5</octave></pitch><duration>1</duration><voice>1</voice><type>eighth</type><stem>down</stem><beam number="1">continue</beam><lyric number="1" default-x="6.58" default-y="-54.87" relative-y="-30.00"><syllabic>single</syllabic><text>E</text></lyric></note><note default-x="296.44" default-y="-5.00"><pitch><step>E</step><octave>5</octave></pitch><duration>1</duration><voice>1</voice><type>eighth</type><stem>down</stem><beam number="1">end</beam><lyric number="1" default-x="6.58" default-y="-54.87" relative-y="-30.00"><syllabic>single</syllabic><text>E</text></lyric></note></measure><measure number="2" width="262.68"><note default-x="10.00" default-y="0.00"><pitch><step>F</step><octave>5</octave></pitch><duration>1</duration><voice>1</voice><type>eighth</type><stem>down</stem><beam number="1">begin</beam><lyric number="1" default-x="6.58" default-y="-54.87" relative-y="-30.00"><syllabic>single</syllabic><text>F</text></lyric></note><note default-x="41.38" default-y="0.00"><pitch><step>F</step><octave>5</octave></pitch><duration>1</duration><voice>1</voice><type>eighth</type><stem>down</stem><beam number="1">continue</beam><lyric number="1" default-x="6.58" default-y="-54.87" relative-y="-30.00"><syllabic>single</syllabic><text>F</text></lyric></note><note default-x="72.77" default-y="-10.00"><pitch><step>D</step><octave>5</octave></pitch><duration>1</duration><voice>1</voice><type>eighth</type><stem>down</stem><beam number="1">continue</beam><lyric number="1" default-x="6.58" default-y="-54.87" relative-y="-30.00"><syllabic>single</syllabic><text>D</text></lyric></note><note default-x="104.15" default-y="-10.00"><pitch><step>D</step><octave>5</octave></pitch><duration>1</duration><voice>1</voice><type>eighth</type><stem>down</stem><beam number="1">end</beam><lyric number="1" default-x="6.58" default-y="-54.87" relative-y="-30.00"><syllabic>single</syllabic><text>D</text></lyric></note><note default-x="135.54" default-y="-20.00"><pitch><step>B</step><octave>4</octave></pitch><duration>1</duration><voice>1</voice><type>eighth</type><stem>up</stem><beam number="1">begin</beam><lyric number="1" default-x="6.58" default-y="-54.87" relative-y="-30.00"><syllabic>single</syllabic><text>B</text></lyric></note><note default-x="166.92" default-y="-20.00"><pitch><step>B</step><octave>4</octave></pitch><duration>1</duration><voice>1</voice><type>eighth</type><stem>up</stem><beam number="1">continue</beam><lyric number="1" default-x="6.58" default-y="-54.87" relative-y="-30.00"><syllabic>single</syllabic><text>B</text></lyric></note><note default-x="198.31" default-y="-30.00"><pitch><step>G</step><octave>4</octave></pitch><duration>1</duration><voice>1</voice><type>eighth</type><stem>up</stem><beam number="1">continue</beam><lyric number="1" default-x="6.58" default-y="-54.87" relative-y="-30.00"><syllabic>single</syllabic><text>G</text></lyric></note><note default-x="229.69" default-y="-30.00"><pitch><step>G</step><octave>4</octave></pitch><duration>1</duration><voice>1</voice><type>eighth</type><stem>up</stem><beam number="1">end</beam><lyric number="1" default-x="6.58" default-y="-54.87" relative-y="-30.00"><syllabic>single</syllabic><text>G</text></lyric></note></measure><measure number="3" width="254.01"><note default-x="10.02" default-y="-40.00"><pitch><step>E</step><octave>4</octave></pitch><duration>1</duration><voice>1</voice><type>eighth</type><stem>up</stem><beam number="1">begin</beam><lyric number="1" default-x="6.58" default-y="-54.87" relative-y="-30.00"><syllabic>single</syllabic><text>E</text></lyric></note><note default-x="40.32" default-y="-40.00"><pitch><step>E</step><octave>4</octave></pitch><duration>1</duration><voice>1</voice><type>eighth</type><stem>up</stem><beam number="1">continue</beam><lyric number="1" default-x="6.58" default-y="-54.87" relative-y="-30.00"><syllabic>single</syllabic><text>E</text></lyric></note><note default-x="70.62" default-y="-35.00"><pitch><step>F</step><octave>4</octave></pitch><duration>1</duration><voice>1</voice><type>eighth</type><stem>up</stem><beam number="1">continue</beam><lyric number="1" default-x="6.58" default-y="-54.87" relative-y="-30.00"><syllabic>single</syllabic><text>F</text></lyric></note><note default-x="100.92" default-y="-35.00"><pitch><step>F</step><octave>4</octave></pitch><duration>1</duration><voice>1</voice><type>eighth</type><stem>up</stem><beam number="1">end</beam><lyric number="1" default-x="6.58" default-y="-54.87" relative-y="-30.00"><syllabic>single</syllabic><text>F</text></lyric></note><note default-x="131.22" default-y="-15.00"><pitch><step>C</step><octave>5</octave></pitch><duration>1</duration><voice>1</voice><type>eighth</type><stem>down</stem><beam number="1">begin</beam><lyric number="1" default-x="6.58" default-y="-54.87" relative-y="-30.00"><syllabic>single</syllabic><text>C</text></lyric></note><note default-x="161.52" default-y="-15.00"><pitch><step>C</step><octave>5</octave></pitch><duration>1</duration><voice>1</voice><type>eighth</type><stem>down</stem><beam number="1">continue</beam><lyric number="1" default-x="6.58" default-y="-54.87" relative-y="-30.00"><syllabic>single</syllabic><text>C</text></lyric></note><note default-x="191.81" default-y="-5.00"><pitch><step>E</step><octave>5</octave></pitch><duration>1</duration><voice>1</voice><type>eighth</type><stem>down</stem><beam number="1">continue</beam><lyric number="1" default-x="6.58" default-y="-54.87" relative-y="-30.00"><syllabic>single</syllabic><text>E</text></lyric></note><note default-x="222.11" default-y="-5.00"><pitch><step>E</step><octave>5</octave></pitch><duration>1</duration><voice>1</voice><type>eighth</type><stem>down</stem><beam number="1">end</beam><lyric number="1" default-x="6.58" default-y="-54.87" relative-y="-30.00"><syllabic>single</syllabic><text>E</text></lyric></note></measure><measure number="4" width="264.86"><note default-x="11.22" default-y="-25.00"><pitch><step>A</step><octave>4</octave></pitch><duration>1</duration><voice>1</voice><type>eighth</type><stem>up</stem><beam number="1">begin</beam><lyric number="1" default-x="6.58" default-y="-54.87" relative-y="-30.00"><syllabic>single</syllabic><text>A</text></lyric></note><note default-x="42.72" default-y="-25.00"><pitch><step>A</step><octave>4</octave></pitch><duration>1</duration><voice>1</voice><type>eighth</type><stem>up</stem><beam number="1">continue</beam><lyric number="1" default-x="6.58" default-y="-54.87" relative-y="-30.00"><syllabic>single</syllabic><text>A</text></lyric></note><note default-x="74.23" default-y="-35.00"><pitch><step>F</step><octave>4</octave></pitch><duration>1</duration><voice>1</voice><type>eighth</type><stem>up</stem><beam number="1">continue</beam><lyric number="1" default-x="6.58" default-y="-54.87" relative-y="-30.00"><syllabic>single</syllabic><text>F</text></lyric></note><note default-x="105.73" default-y="-35.00"><pitch><step>F</step><octave>4</octave></pitch><duration>1</duration><voice>1</voice><type>eighth</type><stem>up</stem><beam number="1">end</beam><lyric number="1" default-x="6.58" default-y="-54.87" relative-y="-30.00"><syllabic>single</syllabic><text>F</text></lyric></note><note default-x="137.24" default-y="-15.00"><pitch><step>C</step><octave>5</octave></pitch><duration>1</duration><voice>1</voice><type>eighth</type><stem>down</stem><beam number="1">begin</beam><lyric number="1" default-x="6.58" default-y="-54.87" relative-y="-30.00"><syllabic>single</syllabic><text>C</text></lyric></note><note default-x="168.74" default-y="-15.00"><pitch><step>C</step><octave>5</octave></pitch><duration>1</duration><voice>1</voice><type>eighth</type><stem>down</stem><beam number="1">continue</beam><lyric number="1" default-x="6.58" default-y="-54.87" relative-y="-30.00"><syllabic>single</syllabic><text>C</text></lyric></note><note default-x="200.25" default-y="-25.00"><pitch><step>A</step><octave>4</octave></pitch><duration>1</duration><voice>1</voice><type>eighth</type><stem>down</stem><beam number="1">continue</beam><lyric number="1" default-x="6.58" default-y="-54.87" relative-y="-30.00"><syllabic>single</syllabic><text>A</text></lyric></note><note default-x="231.75" default-y="-25.00"><pitch><step>A</step><octave>4</octave></pitch><duration>1</duration><voice>1</voice><type>eighth</type><stem>down</stem><beam number="1">end</beam><lyric number="1" default-x="6.58" default-y="-54.87" relative-y="-30.00"><syllabic>single</syllabic><text>A</text></lyric></note></measure><measure number="5" width="314.59"><print new-system="yes"><system-layout><system-margins><left-margin>0.00</left-margin><right-margin>-0.00</right-margin></system-margins><system-distance>150.00</system-distance></system-layout></print><note default-x="58.17" default-y="-40.00"><pitch><step>E</step><octave>4</octave></pitch><duration>1</duration><voice>1</voice><type>eighth</type><stem>up</stem><beam number="1">begin</beam><lyric number="1" default-x="6.58" default-y="-59.43" relative-y="-30.00"><syllabic>single</syllabic><text>E</text></lyric></note><note default-x="90.03" default-y="-40.00"><pitch><step>E</step><octave>4</octave></pitch><duration>1</duration><voice>1</voice><type>eighth</type><stem>up</stem><beam number="1">continue</beam><lyric number="1" default-x="6.58" default-y="-59.43" relative-y="-30.00"><syllabic>single</syllabic><text>E</text></lyric></note><note default-x="121.88" default-y="-30.00"><pitch><step>G</step><octave>4</octave></pitch><duration>1</duration><voice>1</voice><type>eighth</type><stem>up</stem><beam number="1">continue</beam><lyric number="1" default-x="6.58" default-y="-59.43" relative-y="-30.00"><syllabic>single</syllabic><text>G</text></lyric></note><note default-x="153.73" default-y="-30.00"><pitch><step>G</step><octave>4</octave></pitch><duration>1</duration><voice>1</voice><type>eighth</type><stem>up</stem><beam number="1">end</beam><lyric number="1" default-x="6.58" default-y="-59.43" relative-y="-30.00"><syllabic>single</syllabic><text>G</text></lyric></note><note default-x="185.58" default-y="-20.00"><pitch><step>B</step><octave>4</octave></pitch><duration>1</duration><voice>1</voice><type>eighth</type><stem>down</stem><beam number="1">begin</beam><lyric number="1" default-x="6.58" default-y="-59.43" relative-y="-30.00"><syllabic>single</syllabic><text>B</text></lyric></note><note default-x="217.43" default-y="-20.00"><pitch><step>B</step><octave>4</octave></pitch><duration>1</duration><voice>1</voice><type>eighth</type><stem>down</stem><beam number="1">continue</beam><lyric number="1" default-x="6.58" default-y="-59.43" relative-y="-30.00"><syllabic>single</syllabic><text>B</text></lyric></note><note default-x="249.28" default-y="-10.00"><pitch><step>D</step><octave>5</octave></pitch><duration>1</duration><voice>1</voice><type>eighth</type><stem>down</stem><beam number="1">continue</beam><lyric number="1" default-x="6.58" default-y="-59.43" relative-y="-30.00"><syllabic>single</syllabic><text>D</text></lyric></note><note default-x="281.13" default-y="-10.00"><pitch><step>D</step><octave>5</octave></pitch><duration>1</duration><voice>1</voice><type>eighth</type><stem>down</stem><beam number="1">end</beam><lyric number="1" default-x="6.58" default-y="-59.43" relative-y="-30.00"><syllabic>single</syllabic><text>D</text></lyric></note></measure><measure number="6" width="265.89"><note default-x="10.00" default-y="0.00"><pitch><step>F</step><octave>5</octave></pitch><duration>1</duration><voice>1</voice><type>eighth</type><stem>down</stem><beam number="1">begin</beam><lyric number="1" default-x="6.58" default-y="-59.43" relative-y="-30.00"><syllabic>single</syllabic><text>F</text></lyric></note><note default-x="41.79" default-y="0.00"><pitch><step>F</step><octave>5</octave></pitch><duration>1</duration><voice>1</voice><type>eighth</type><stem>down</stem><beam number="1">continue</beam><lyric number="1" default-x="6.58" default-y="-59.43" relative-y="-30.00"><syllabic>single</syllabic><text>F</text></lyric></note><note default-x="73.57" default-y="-10.00"><pitch><step>D</step><octave>5</octave></pitch><duration>1</duration><voice>1</voice><type>eighth</type><stem>down</stem><beam number="1">continue</beam><lyric number="1" default-x="6.58" default-y="-59.43" relative-y="-30.00"><syllabic>single</syllabic><text>D</text></lyric></note><note default-x="105.36" default-y="-10.00"><pitch><step>D</step><octave>5</octave></pitch><duration>1</duration><voice>1</voice><type>eighth</type><stem>down</stem><beam number="1">end</beam><lyric number="1" default-x="6.58" default-y="-59.43" relative-y="-30.00"><syllabic>single</syllabic><text>D</text></lyric></note><note default-x="137.14" default-y="-20.00"><pitch><step>B</step><octave>4</octave></pitch><duration>1</duration><voice>1</voice><type>eighth</type><stem>up</stem><beam number="1">begin</beam><lyric number="1" default-x="6.58" default-y="-59.43" relative-y="-30.00"><syllabic>single</syllabic><text>B</text></lyric></note><note default-x="168.93" default-y="-20.00"><pitch><step>B</step><octave>4</octave></pitch><duration>1</duration><voice>1</voice><type>eighth</type><stem>up</stem><beam number="1">continue</beam><lyric number="1" default-x="6.58" default-y="-59.43" relative-y="-30.00"><syllabic>single</syllabic><text>B</text></lyric></note><note default-x="200.72" default-y="-30.00"><pitch><step>G</step><octave>4</octave></pitch><duration>1</duration><voice>1</voice><type>eighth</type><stem>up</stem><beam number="1">continue</beam><lyric number="1" default-x="6.58" default-y="-59.43" relative-y="-30.00"><syllabic>single</syllabic><text>G</text></lyric></note><note default-x="232.50" default-y="-30.00"><pitch><step>G</step><octave>4</octave></pitch><duration>1</duration><voice>1</voice><type>eighth</type><stem>up</stem><beam number="1">end</beam><lyric number="1" default-x="6.58" default-y="-59.43" relative-y="-30.00"><syllabic>single</syllabic><text>G</text></lyric></note></measure><measure number="7" width="266.61"><note default-x="11.22" default-y="-25.00"><pitch><step>A</step><octave>4</octave></pitch><duration>1</duration><voice>1</voice><type>eighth</type><stem>down</stem><beam number="1">begin</beam><lyric number="1" default-x="6.58" default-y="-59.43" relative-y="-30.00"><syllabic>single</syllabic><text>A</text></lyric></note><note default-x="42.94" default-y="-25.00"><pitch><step>A</step><octave>4</octave></pitch><duration>1</duration><voice>1</voice><type>eighth</type><stem>down</stem><beam number="1">continue</beam><lyric number="1" default-x="6.58" default-y="-59.43" relative-y="-30.00"><syllabic>single</syllabic><text>A</text></lyric></note><note default-x="74.66" default-y="-5.00"><pitch><step>E</step><octave>5</octave></pitch><duration>1</duration><voice>1</voice><type>eighth</type><stem>down</stem><beam number="1">continue</beam><lyric number="1" default-x="6.58" default-y="-59.43" relative-y="-30.00"><syllabic>single</syllabic><text>E</text></lyric></note><note default-x="106.39" default-y="-5.00"><pitch><step>E</step><octave>5</octave></pitch><duration>1</duration><voice>1</voice><type>eighth</type><stem>down</stem><beam number="1">end</beam><lyric number="1" default-x="6.58" default-y="-59.43" relative-y="-30.00"><syllabic>single</syllabic><text>E</text></lyric></note><note default-x="138.11" default-y="-25.00"><pitch><step>A</step><octave>4</octave></pitch><duration>1</duration><voice>1</voice><type>eighth</type><stem>up</stem><beam number="1">begin</beam><lyric number="1" default-x="6.58" default-y="-59.43" relative-y="-30.00"><syllabic>single</syllabic><text>A</text></lyric></note><note default-x="169.84" default-y="-25.00"><pitch><step>A</step><octave>4</octave></pitch><duration>1</duration><voice>1</voice><type>eighth</type><stem>up</stem><beam number="1">continue</beam><lyric number="1" default-x="6.58" default-y="-59.43" relative-y="-30.00"><syllabic>single</syllabic><text>A</text></lyric></note><note default-x="201.56" default-y="-35.00"><pitch><step>F</step><octave>4</octave></pitch><duration>1</duration><voice>1</voice><type>eighth</type><stem>up</stem><beam number="1">continue</beam><lyric number="1" default-x="6.58" default-y="-59.43" relative-y="-30.00"><syllabic>single</syllabic><text>F</text></lyric></note><note default-x="233.28" default-y="-35.00"><pitch><step>F</step><octave>4</octave></pitch><duration>1</duration><voice>1</voice><type>eighth</type><stem>up</stem><beam number="1">end</beam><lyric number="1" default-x="6.58" default-y="-59.43" relative-y="-30.00"><syllabic>single</syllabic><text>F</text></lyric></note></measure><measure number="8" width="263.53"><note default-x="10.00" default-y="0.00"><pitch><step>F</step><octave>5</octave></pitch><duration>1</duration><voice>1</voice><type>eighth</type><stem>down</stem><beam number="1">begin</beam><lyric number="1" default-x="6.58" default-y="-59.43" relative-y="-30.00"><syllabic>single</syllabic><text>F</text></lyric></note><note default-x="41.49" default-y="-10.00"><pitch><step>D</step><octave>5</octave></pitch><duration>1</duration><voice>1</voice><type>eighth</type><stem>down</stem><beam number="1">continue</beam><lyric number="1" default-x="6.58" default-y="-59.43" relative-y="-30.00"><syllabic>single</syllabic><text>D</text></lyric></note><note default-x="72.98" default-y="-20.00"><pitch><step>B</step><octave>4</octave></pitch><duration>1</duration><voice>1</voice><type>eighth</type><stem>down</stem><beam number="1">continue</beam><lyric number="1" default-x="6.58" default-y="-59.43" relative-y="-30.00"><syllabic>single</syllabic><text>B</text></lyric></note><note default-x="104.47" default-y="-30.00"><pitch><step>G</step><octave>4</octave></pitch><duration>1</duration><voice>1</voice><type>eighth</type><stem>down</stem><beam number="1">end</beam><lyric number="1" default-x="6.58" default-y="-59.43" relative-y="-30.00"><syllabic>single</syllabic><text>G</text></lyric></note><note default-x="135.97" default-y="-35.00"><pitch><step>F</step><octave>4</octave></pitch><duration>1</duration><voice>1</voice><type>eighth</type><stem>down</stem><beam number="1">begin</beam><lyric number="1" default-x="6.58" default-y="-59.43" relative-y="-30.00"><syllabic>single</syllabic><text>F</text></lyric></note><note default-x="167.46" default-y="-25.00"><pitch><step>A</step><octave>4</octave></pitch><duration>1</duration><voice>1</voice><type>eighth</type><stem>down</stem><beam number="1">continue</beam><lyric number="1" default-x="6.58" default-y="-59.43" relative-y="-30.00"><syllabic>single</syllabic><text>A</text></lyric></note><note default-x="198.95" default-y="-15.00"><pitch><step>C</step><octave>5</octave></pitch><duration>1</duration><voice>1</voice><type>eighth</type><stem>down</stem><beam number="1">continue</beam><lyric number="1" default-x="6.58" default-y="-59.43" relative-y="-30.00"><syllabic>single</syllabic><text>C</text></lyric></note><note default-x="230.44" default-y="-5.00"><pitch><step>E</step><octave>5</octave></pitch><duration>1</duration><voice>1</voice><type>eighth</type><stem>down</stem><beam number="1">end</beam><lyric number="1" default-x="6.58" default-y="-59.43" relative-y="-30.00"><syllabic>single</syllabic><text>E</text></lyric></note></measure><measure number="9" width="235.87"><print new-system="yes"><system-layout><system-margins><left-margin>0.00</left-margin><right-margin>874.74</right-margin></system-margins><system-distance>150.00</system-distance></system-layout></print><note default-x="58.17" default-y="0.00"><pitch><step>F</step><octave>5</octave></pitch><duration>4</duration><voice>1</voice><type>half</type><stem>down</stem><lyric number="1" default-x="6.94" default-y="-40.00" relative-y="-30.00"><syllabic>single</syllabic><text>F</text></lyric></note><note><rest/><duration>4</duration><voice>1</voice><type>half</type></note><barline location="right"><bar-style>light-heavy</bar-style></barline></measure></part></score-partwise>