<?xml version="1.0" encoding="UTF-8"?><!DOCTYPE score-partwise PUBLIC "-//Recordare//DTD MusicXML 3.1 Partwise//EN" "http://www.musicxml.org/dtds/partwise.dtd"><score-partwise version="3.1"><work><work-title>Learn Notes I</work-title></work><identification><rights>MIT License</rights><encoding><software>MuseScore 3.3.2</software><encoding-date>2019-11-25</encoding-date><supports element="accidental" type="yes"/><supports element="beam" type="yes"/><supports element="print" attribute="new-page" type="yes" value="yes"/><supports element="print" attribute="new-system" type="yes" value="yes"/><supports element="stem" type="yes"/></encoding></identification><defaults><scaling><millimeters>7.05556</millimeters><tenths>40</tenths></scaling><page-layout><page-height>1584</page-height><page-width>1224</page-width><page-margins type="even"><left-margin>56.6929</left-margin><right-margin>56.6929</right-margin><top-margin>56.6929</top-margin><bottom-margin>113.386</bottom-margin></page-margins><page-margins type="odd"><left-margin>56.6929</left-margin><right-margin>56.6929</right-margin><top-margin>56.6929</top-margin><bottom-margin>113.386</bottom-margin></page-margins></page-layout><word-font font-family="FreeSerif" font-size="10"/><lyric-font font-family="FreeSerif" font-size="11"/></defaults><credit page="1"><credit-words default-x="612" default-y="1527.31" justify="center" valign="top" font-size="24">Learn Notes I</credit-words></credit><credit page="1"><credit-words default-x="612" default-y="113.386" justify="center" valign="bottom" font-size="8">MIT License</credit-words></credit><part-list><score-part id="P1"><part-name>Piano</part-name><part-abbreviation>Pno.</part-abbreviation><score-instrument id="P1-I1"><instrument-name>Piano</instrument-name></score-instrument><midi-device id="P1-I1" port="1"></midi-device><midi-instrument id="P1-I1"><midi-channel>1</midi-channel><midi-program>1</midi-program><volume>78.7402</volume><pan>0</pan></midi-instrument></score-part></part-list><part id="P1"><measure number="1" width="195.15"><print><system-layout><system-margins><left-margin>0.00</left-margin><right-margin>-0.00</right-margin></system-margins><top-system-distance>170.00</top-system-distance></system-layout></print><attributes><divisions>1</divisions><key><fifths>0</fifths></key><time><beats>4</beats><beat-type>4</beat-type></time><clef><sign>G</sign><line>2</line></clef></attributes><note default-x="79.27" default-y="-35.00"><pitch><step>F</step><octave>4</octave></pitch><duration>4</duration><voice>1</voice><type>whole</type><lyric number="1" default-x="3.26" default-y="-40.00" relative-y="-30.00"><syllabic>single</syllabic><text>F</text></lyric></note></measure><measure number="2" width="131.16"><note default-x="10.00" default-y="-25.00"><pitch><step>A</step><octave>4</octave></pitch><duration>4</duration><voice>1</voice><type>whole</type><lyric number="1" default-x="3.26" default-y="-40.00" relative-y="-30.00"><syllabic>single</syllabic><text>A</text></lyric></note></measure><measure number="3" width="130.50"><note default-x="13.32" default-y="-15.00"><pitch><step>C</step><octave>5</octave></pitch><duration>4</duration><voice>1</voice><type>whole</type><lyric number="1" default-x="9.90" default-y="-40.00" relative-y="-30.00"><syllabic>single</syllabic><text>C</text></lyric></note></measure><measure number="4" width="130.50"><note default-x="13.32" default-y="-5.00"><pitch><step>E</step><octave>5</octave></pitch><duration>4</duration><voice>1</voice><type>whole</type><lyric number="1" default-x="9.90" default-y="-40.00" relative-y="-30.00"><syllabic>single</syllabic><text>E</text></lyric></note></measure><measure number="5" width="131.16"><note default-x="10.00" default-y="-35.00"><pitch><step>F</step><octave>4</octave></pitch><duration>4</duration><voice>1</voice><type>whole</type><lyric number="1" default-x="3.26" default-y="-40.00" relative-y="-30.00"><syllabic>single</syllabic><text>F</text></lyric></note></measure><measure number="6" width="131.16"><note default-x="10.00" default-y="-25.00"><pitch><step>A</step><octave>4</octave></pitch><duration>4</duration><voice>1</voice><type>whole</type><lyric number="1" default-x="3.26" default-y="-40.00" relative-y="-30.00"><syllabic>single</syllabic><text>A</text></lyric></note></measure><measure number="7" width="130.50"><note default-x="13.32" default-y="-15.00"><pitch><step>C</step><octave>5</octave></pitch><duration>4</duration><voice>1</voice><type>whole</type><lyric number="1" default-x="9.90" default-y="-40.00" relative-y="-30.00"><syllabic>single</syllabic><text>C</text></lyric></note></measure><measure number="8" width="130.50"><note default-x="13.32" default-y="-5.00"><pitch><step>E</step><octave>5</octave></pitch><duration>4</duration><voice>1</voice><type>whole</type><lyric number="1" default-x="9.90" default-y="-40.00" relative-y="-30.00"><syllabic>single</syllabic><text>E</text></lyric></note></measure><measure number="9" width="176.70"><print new-system="yes"><system-layout><system-margins><left-margin>0.00</left-margin><right-margin>-0.00</right-margin></system-margins><system-distance>150.00</system-distance></system-layout></print><note default-x="58.17" default-y="-40.00"><pitch><step>E</step><octave>4</octave></pitch><duration>4</duration><voice>1</voice><type>whole</type><lyric number="1" default-x="3.26" default-y="-40.00" relative-y="-30.00"><syllabic>single</syllabic><text>E</text></lyric></note></measure><measure number="10" width="133.80"><note default-x="10.00" default-y="-30.00"><pitch><step>G</step><octave>4</octave></pitch><duration>4</duration><voice>1</voice><type>whole</type><lyric number="1" default-x="3.26" default-y="-40.00" relative-y="-30.00"><syllabic>single</syllabic><text>G</text></lyric></note></measure><measure number="11" width="133.13"><note default-x="13.32" default-y="-20.00"><pitch><step>B</step><octave>4</octave></pitch><duration>4</duration><voice>1</voice><type>whole</type><lyric number="1" default-x="9.90" default-y="-40.00" relative-y="-30.00"><syllabic>single</syllabic><text>B</text></lyric></note></measure><measure number="12" width="133.13"><note default-x="13.32" default-y="-10.00"><pitch><step>D</step><octave>5</octave></pitch><duration>4</duration><voice>1</voice><type>whole</type><lyric number="1" default-x="9.90" default-y="-40.00" relative-y="-30.00"><syllabic>single</syllabic><text>D</text></lyric></note></measure><measure number="13" width="133.13"><note default-x="13.32" default-y="0.00"><pitch><step>F</step><octave>5</octave></pitch><duration>4</duration><voice>1</voice><type>whole</type><lyric number="1" default-x="9.90" default-y="-40.00" relative-y="-30.00"><syllabic>single</syllabic><text>F</text></lyric></note></measure><measure number="14" width="133.80"><note default-x="10.00" default-y="-40.00"><pitch><step>E</step><octave>4</octave></pitch><duration>4</duration><voice>1</voice><type>whole</type><lyric number="1" default-x="3.26" default-y="-40.00" relative-y="-30.00"><syllabic>single</syllabic><text>E</text></lyric></note></measure><measure number="15" width="133.80"><note default-x="10.00" default-y="-30.00"><pitch><step>G</step><octave>4</octave></pitch><duration>4</duration><voice>1</voice><type>whole</type><lyric number="1" default-x="3.26" default-y="-40.00" relative-y="-30.00"><syllabic>single</syllabic><text>G</text></lyric></note></measure><measure number="16" width="133.13"><note default-x="13.32" default-y="-20.00"><pitch><step>B</step><octave>4</octave></pitch><duration>4</duration><voice>1</voice><type>whole</type><lyric number="1" default-x="9.90" default-y="-40.00" relative-y="-30.00"><syllabic>single</syllabic><text>B</text></lyric></note></measure><measure number="17" width="159.77"><print new-system="yes"><system-layout><system-margins><left-margin>0.00</left-margin><right-margin>-0.00</right-margin></system-margins><system-distance>150.00</system-distance></system-layout></print><note default-x="58.17" default-y="-10.00"><pitch><step>D</step><octave>5</octave></pitch><duration>4</duration><voice>1</voice><type>whole</type><lyric number="1" default-x="9.90" default-y="-46.30" relative-y="-30.00"><syllabic>single</syllabic><text>D</text></lyric></note></measure><measure number="18" width="120.19"><note default-x="13.32" default-y="0.00"><pitch><step>F</step><octave>5</octave></pitch><duration>4</duration><voice>1</voice><type>whole</type><lyric number="1" default-x="9.90" default-y="-46.30" relative-y="-30.00"><syllabic>single</syllabic><text>F</text></lyric></note></measure><measure number="19" width="166.09"><note default-x="10.02" default-y="-40.00"><pitch><step>E</step><octave>4</octave></pitch><duration>1</duration><voice>1</voice><type>quarter</type><stem>up</stem><lyric number="1" default-x="6.58" default-y="-46.30" relative-y="-30.00"><syllabic>single</syllabic><text>E</text></lyric></note><note default-x="48.64" default-y="-35.00"><pitch><step>F</step><octave>4</octave></pitch><duration>1</duration><voice>1</voice><type>quarter</type><stem>up</stem><lyric number="1" default-x="6.58" default-y="-46.30" relative-y="-30.00"><syllabic>single</syllabic><text>F</text></lyric></note><note default-x="87.25" default-y="-30.00"><pitch><step>G</step><octave>4</octave></pitch><duration>1</duration><voice>1</voice><type>quarter</type><stem>up</stem><lyric number="1" default-x="6.58" default-y="-46.30" relative-y="-30.00"><syllabic>single</syllabic><text>G</text></lyric></note><note default-x="125.87" default-y="-25.00"><pitch><step>A</step><octave>4</octave></pitch><duration>1</duration><voice>1</voice><type>quarter</type><stem>up</stem><lyric number="1" default-x="6.58" default-y="-46.30" relative-y="-30.00"><syllabic>single</syllabic><text>A</text></lyric></note></measure><measure number="20" width="164.21"><note default-x="10.02" default-y="-20.00"><pitch><step>B</step><octave>4</octave></pitch><duration>1</duration><voice>1</voice><type>quarter</type><stem>down</stem><lyric number="1" default-x="6.58" default-y="-46.30" relative-y="-30.00"><syllabic>single</syllabic><text>B</text></lyric></note><note default-x="48.17" default-y="-15.00"><pitch><step>C</step><octave>5</octave></pitch><duration>1</duration><voice>1</voice><type>quarter</type><stem>down</stem><lyric number="1" default-x="6.58" default-y="-46.30" relative-y="-30.00"><syllabic>single</syllabic><text>C</text></lyric></note><note default-x="86.31" default-y="-10.00"><pitch><step>D</step><octave>5</octave></pitch><duration>1</duration><voice>1</voice><type>quarter</type><stem>down</stem><lyric number="1" default-x="6.58" default-y="-46.30" relative-y="-30.00"><syllabic>single</syllabic><text>D</text></lyric></note><note default-x="124.46" default-y="-5.00"><pitch><step>E</step><octave>5</octave></pitch><duration>1</duration><voice>1</voice><type>quarter</type><stem>down</stem><lyric number="1" default-x="6.58" default-y="-46.30" relative-y="-30.00"><syllabic>single</syllabic><text>E</text></lyric></note></measure><measure number="21" width="163.15"><note default-x="10.00" default-y="0.00"><pitch><step>F</step><octave>5</octave></pitch><duration>1</duration><voice>1</voice><type>quarter</type><stem>down</stem><lyric number="1" default-x="6.58" default-y="-46.30" relative-y="-30.00"><syllabic>single</syllabic><text>F</text></lyric></note><note default-x="47.89" default-y="0.00"><pitch><step>F</step><octave>5</octave></pitch><duration>1</duration><voice>1</voice><type>quarter</type><stem>down</stem><lyric number="1" default-x="6.58" default-y="-46.30" relative-y="-30.00"><syllabic>single</syllabic><text>F</text></lyric></note><note default-x="85.78" default-y="-5.00"><pitch><step>E</step><octave>5</octave></pitch><duration>1</duration><voice>1</voice><type>quarter</type><stem>down</stem><lyric number="1" default-x="6.58" default-y="-46.30" relative-y="-30.00"><syllabic>single</syllabic><text>E</text></lyric></note><note default-x="123.66" default-y="-10.00"><pitch><step>D</step><octave>5</octave></pitch><duration>1</duration><voice>1</voice><type>quarter</type><stem>down</stem><lyric number="1" default-x="6.58" default-y="-46.30" relative-y="-30.00"><syllabic>single</syllabic><text>D</text></lyric></note></measure><measure number="22" width="167.49"><note default-x="10.42" default-y="-15.00"><pitch><step>C</step><octave>5</octave></pitch><duration>1</duration><voice>1</voice><type>quarter</type><stem>down</stem><lyric number="1" default-x="6.58" default-y="-46.30" relative-y="-30.00"><syllabic>single</syllabic><text>C</text></lyric></note><note default-x="49.29" default-y="-20.00"><pitch><step>B</step><octave>4</octave></pitch><duration>1</duration><voice>1</voice><type>quarter</type><stem>down</stem><lyric number="1" default-x="6.58" default-y="-46.30" relative-y="-30.00"><syllabic>single</syllabic><text>B</text></lyric></note><note default-x="88.15" default-y="-25.00"><pitch><step>A</step><octave>4</octave></pitch><duration>1</duration><voice>1</voice><type>quarter</type><stem>up</stem><lyric number="1" default-x="6.58" default-y="-46.30" relative-y="-30.00"><syllabic>single</syllabic><text>A</text></lyric></note><note default-x="127.02" default-y="-30.00"><pitch><step>G</step><octave>4</octave></pitch><duration>1</duration><voice>1</voice><type>quarter</type><stem>up</stem><lyric number="1" default-x="6.58" default-y="-46.30" relative-y="-30.00"><syllabic>single</syllabic><text>G</text></lyric></note></measure><measure number="23" width="169.71"><note default-x="10.00" default-y="-35.00"><pitch><step>F</step><octave>4</octave></pitch><duration>1</duration><voice>1</voice><type>quarter</type><stem>up</stem><lyric number="1" default-x="6.58" default-y="-46.30" relative-y="-30.00"><syllabic>single</syllabic><text>F</text></lyric></note><note default-x="47.28" default-y="-40.00"><pitch><step>E</step><octave>4</octave></pitch><duration>1</duration><voice>1</voice><type>quarter</type><stem>up</stem><lyric number="1" default-x="6.58" default-y="-46.30" relative-y="-30.00"><syllabic>single</syllabic><text>E</text></lyric></note><note default-x="84.55" default-y="-35.00"><pitch><step>F</step><octave>4</octave></pitch><duration>1</duration><voice>1</voice><type>quarter</type><stem>up</stem><lyric number="1" default-x="6.58" default-y="-46.30" relative-y="-30.00"><syllabic>single</syllabic><text>F</text></lyric></note><note default-x="121.83" default-y="-40.00"><pitch><step>E</step><octave>4</octave></pitch><duration>1</duration><voice>1</voice><type>quarter</type><stem>up</stem><lyric number="1" default-x="6.58" default-y="-46.30" relative-y="-30.00"><syllabic>single</syllabic><text>E</text></lyric></note><barline location="right"><bar-style>light-heavy</bar-style></barline></measure></part></score-partwise>